<?xml version="1.0" encoding="utf-8"?>
<!-- Generator: Adobe Illustrator 25.0.0, SVG Export Plug-In . SVG Version: 6.00 Build 0)  -->
<svg version="1.1" baseProfile="tiny" id="Layer_1" xmlns="http://www.w3.org/2000/svg" xmlns:xlink="http://www.w3.org/1999/xlink"
	 x="0px" y="0px" viewBox="0 0 116.129 438.7097" overflow="visible" xml:space="preserve">
<g>
	<path fill="none" stroke="#000000" d="M9.1434,372.161h94.8633v24.668H64.1629v7.3828h39.8438v24.668H9.1434v-24.668h33.9258
		v-7.3828H9.1434V372.161z"/>
	<path fill="none" stroke="#000000" d="M66.5066,309.3485v30.6445H83.323c3.5156,0,5.7817-0.2534,6.7969-0.7617
		c1.0161-0.5073,1.5234-1.4839,1.5234-2.9297c0-1.7964-0.6738-2.9976-2.0215-3.6035c-1.3477-0.605-3.9551-0.9082-7.8223-0.9082
		H71.5457v-22.4414h5.7422c4.8047,0,8.4961,0.3032,11.0742,0.9082c2.5781,0.606,5.332,2.0215,8.2617,4.248
		s5.127,5.0493,6.5918,8.4668c1.4648,3.4185,2.1973,7.7051,2.1973,12.8613c0,5.0005-0.7231,9.4146-2.168,13.2422
		c-1.4448,3.8286-3.4277,6.8071-5.9473,8.9355c-2.5195,2.1294-5.2925,3.6035-8.3203,4.4238
		c-3.0269,0.8203-7.4312,1.2305-13.2129,1.2305H53.0887c-6.7969,0-12.1582-0.9175-16.084-2.7539
		c-3.9258-1.8354-6.9331-4.8433-9.0234-9.0234c-2.0894-4.1792-3.1348-8.9839-3.1348-14.4141c0-6.6401,1.2598-12.1187,3.7793-16.4355
		c2.5195-4.3159,5.8594-7.3433,10.0195-9.082c4.1602-1.7378,10.0103-2.6074,17.5488-2.6074H66.5066z M53.8504,333.079h-5.6836
		c-4.0229,0-6.6211,0.2153-7.793,0.6445c-1.1719,0.4302-1.7578,1.3091-1.7578,2.6367c0,1.6406,0.498,2.6567,1.4941,3.0469
		c0.9961,0.3911,3.6821,0.5859,8.0566,0.5859h5.6836V333.079z"/>
	<path fill="none" stroke="#000000" d="M9.1434,277.2392h94.8633v24.375H9.1434V277.2392z"/>
	<path fill="none" stroke="#000000" d="M9.1434,244.3681h94.8633v24.375H9.1434V244.3681z"/>
	<path fill="none" stroke="#000000" d="M53.5574,182.3173h19.043c6.9927,0,12.1196,0.3516,15.3809,1.0547
		c3.2622,0.7031,6.3091,2.2075,9.1406,4.5117c2.8325,2.3052,4.9219,5.2642,6.2695,8.877c1.3477,3.6138,2.0215,7.7637,2.0215,12.4512
		c0,5.2349-0.5767,9.668-1.7285,13.3008s-2.8901,6.4556-5.2148,8.4668c-2.3237,2.0122-5.1362,3.4478-8.4375,4.3066
		c-3.3003,0.8599-8.2515,1.2891-14.8535,1.2891H55.2566c-7.2261,0-12.8706-0.7808-16.9336-2.3438
		c-4.062-1.562-7.3242-4.3745-9.7852-8.4375c-2.4609-4.062-3.6914-9.2578-3.6914-15.5859c0-5.312,0.791-9.873,2.373-13.6816
		s3.6431-6.7476,6.1816-8.8184c2.5396-2.0698,5.1562-3.4863,7.8516-4.248S48.0496,182.3173,53.5574,182.3173z M47.698,205.9892
		c-3.9844,0-6.4937,0.2153-7.5293,0.6445c-1.0347,0.4302-1.5527,1.3477-1.5527,2.7539s0.5181,2.3438,1.5527,2.8125
		c1.0356,0.4688,3.5449,0.7031,7.5293,0.7031h35.0977c3.6724,0,6.0645-0.2344,7.1777-0.7031s1.6699-1.3862,1.6699-2.7539
		c0-1.4062-0.5073-2.3335-1.5234-2.7832c-1.0151-0.4487-3.2026-0.6738-6.5625-0.6738H47.698z"/>
	<path fill="none" stroke="#000000" d="M9.1434,152.6689V111.536h18.9844v16.4648H46.116v-15.4102h18.0469v15.4102h20.8594v-18.1055
		h18.9844v42.7734H9.1434z"/>
	<path fill="none" stroke="#000000" d="M87.8348,52.4735h16.1719v52.0898l-13.5352-0.0146
		C65.2376,89.1195,49.6224,79.9496,43.6258,77.039c-5.9956-2.9097-10.6733-4.3652-14.0332-4.3652
		c-2.5781,0-4.5015,0.4404-5.7715,1.3203c-1.269,0.8809-1.9043,2.2202-1.9043,4.019c0,1.7998,0.7031,3.1392,2.1094,4.019
		c1.4062,0.8809,4.1997,1.3203,8.3789,1.3203h9.0234v21.2109h-3.457c-5.312,0-9.5015-0.2729-12.5684-0.8203
		c-3.0659-0.5464-6.0835-1.894-9.0527-4.043c-2.9683-2.1479-5.2148-4.9409-6.7383-8.3789
		c-1.5234-3.437-2.2852-7.5586-2.2852-12.3633c0-9.4136,2.3345-16.5327,7.002-21.3574c4.6685-4.8237,10.5762-7.2363,17.7246-7.2363
		c5.4302,0,11.1724,1.3579,17.2266,4.0732c6.0552,2.7153,18.9067,10.7134,38.5547,23.9951V52.4735z"/>
	<path fill="none" stroke="#000000" d="M9.1434,6.7704h94.8633v23.6719H53.1473c-7.3433,0-11.7573,0.1758-13.2422,0.5273
		c-1.4839,0.3516-2.6074,1.3184-3.3691,2.9004s-1.1426,5.1079-1.1426,10.5762v2.3438H24.3338
		c-2.4629-11.4448-7.5264-20.1362-15.1904-26.0742V6.7704z"/>
</g>
</svg>
