<?xml version="1.0" encoding="utf-8"?>
<!-- Generator: Adobe Illustrator 25.0.0, SVG Export Plug-In . SVG Version: 6.00 Build 0)  -->
<svg version="1.1" baseProfile="tiny" id="Layer_1" xmlns="http://www.w3.org/2000/svg" xmlns:xlink="http://www.w3.org/1999/xlink"
	 x="0px" y="0px" viewBox="0 0 287.0968 274.1935" overflow="visible" xml:space="preserve">
<path fill="none" stroke="#000000" stroke-linejoin="round" d="M130.3698,46.6819c0.416,0.937-4.766-0.366-6.176,5.275
	c-1.526,6.104-2.513,15.325,5.147,17.24c2.232,0.558,4.278-1.866,5.146-3.602c2.452-4.904,3.833-9.087,2.058-14.41
	C135.4977,48.0419,129.7567,45.3039,130.3698,46.6819z"/>
<path fill="none" stroke="#000000" stroke-linejoin="round" d="M154.8148,48.4829c0.722,0.181-1.156,0.77-1.801,1.415
	c-2.066,2.066-1.802,5.014-1.802,7.72c0,5.013,2.69,16.172,10.293,13.638c4.009-1.336,4.964-15.033,3.345-18.27
	c-1.16-2.32-4.211-5.403-7.205-5.403C156.8358,47.5829,154.3517,48.3679,154.8148,48.4829z"/>
<path fill="none" stroke="#000000" stroke-linejoin="round" d="M145.6797,77.9459c3.474,2.421,0.305-0.515-1.672-0.515
	c-4.373,0-9.139,7.782-4.117,10.293c2.697,1.349,7.979,1.795,9.778-1.801C151.8327,81.5939,144.9577,77.4429,145.6797,77.9459z"/>
<path fill="none" stroke="#000000" stroke-linejoin="round" d="M107.2108,70.4839c0,0,0.94-3.413,1.287-5.147
	c1.779-8.898,2.927-18.14,5.146-27.018c4.227-16.907,29.536-26.77,45.031-24.188c21.091,3.516,21.962,29.44,25.989,45.545
	c1.301,5.204,1.017,22.048,10.807,18.785c15.936-5.312,34.419-2.414,50.692-10.55c5.443-2.722,21.601-26.524,25.731-20.328
	c8.213,12.318-2.878,42.81-8.491,54.036c-3.507,7.013-11.724,12.216-13.895,19.814c-4.685,16.397-6.325,35.462-20.586,47.346
	c-9.127,7.606-16.617-13.182-24.187-3.088c-10.688,14.251-6.401,40.844-20.071,52.236c-6.6,5.5-12.158-4.407-17.24-6.948
	c-0.345-0.172-1.827-1.261-2.316-0.772c-8.393,8.393-5.699,48.809-29.592,51.464c-18.441,2.049-31.777-24.186-38.34-37.311
	c-2.02-4.04-4.146-8.215-5.918-12.352c-0.697-1.625,0.481-5.146-1.287-5.146c-2.951,0-2.131,12.928-10.807,10.036
	c-6.622-2.208-14.239-28.738-15.697-36.025c-0.834-4.173-4.765-31.269-5.918-32.422c-2.551-2.551-6.519,7.148-9.521,5.146
	c-2.775-1.85-19.897-50.619-21.357-56.095c-2.27-8.511-8.928-40.812-4.889-48.89c1.115-2.23,1.582-8.453,3.345-6.69
	c18.634,18.634,32.338,26.918,59.183,31.392c10.671,1.779,25.217,1.331,25.217-12.866"/>
</svg>
