<?xml version="1.0" encoding="utf-8"?>
<!-- Generator: Adobe Illustrator 25.0.0, SVG Export Plug-In . SVG Version: 6.00 Build 0)  -->
<svg version="1.1" id="Layer_1" xmlns:inkpad="http://taptrix.com/inkpad/svg_extensions"
	 xmlns="http://www.w3.org/2000/svg" xmlns:xlink="http://www.w3.org/1999/xlink" x="0px" y="0px" viewBox="0 0 203 217"
	 style="enable-background:new 0 0 203 217;" xml:space="preserve">
<style type="text/css">
	.st0{fill:none;stroke:#000000;stroke-linejoin:round;}
</style>
<path class="st0" d="M8,104.6c0.3-6.2-1.7,13.6-0.7,13.6c9.6,0,22.1,6.2,29.4,12c1,0.8,13.2,10.6,13.8,9.1c0.9-2.7,3.5-4.4,2.6-7.9
	c-0.4-1.7-2.7-6.3-1.8-8.1c1.2-2.5,5.7-4.2,7.2-7c0.9-1.9-5.5-10.9-6.3-13.3c-0.8-2.3-1.2-14.8-4.4-14.8c-3.1,0-8.2,7.7-12.2,8.6
	c-4.7,1.2-17.9,0.5-21.2,3.8c-1.5,1.5-6.3,0.3-6.3,3.1C8.2,104.7,7.8,107.6,8,104.6z"/>
<path class="st0" d="M36.8,133.9c0,0-0.3,14.4,1.5,21.4c0.9,3.7,4.8,9.1,7.4,11.7c0.6,0.6,2.3,0.4,2.3,1.3c0,9.2,1.1,16.7,10,24.1
	c25.9,21.6,64.8,23.8,96.4,16c6.1-1.5,16.6-5.1,19.7-11.3c1.5-3,3.1-6.1,2-9.4c-0.5-1.4-1.5-5.8-1.5-4.3c0,0.8,5.8-0.7,6.2-1.1
	c2.8-2.8,5.7-5.9,8-9.4c5.6-8.4,7.7-25.4,8.4-35.3c0.5-6.8,2-18.5-0.5-25c-1-2.5-2.2-7-4.1-8.9c-1.1-1.1-4.7-3.4-3.1-3.4
	c8.4,0,7.1-28.9,5.9-33.7c-2.4-9.7-6.8-22-13.1-29.9c-1.7-2.1-5.2-5.1-7.9-5.7c-1.5-0.4-6-1.3-4.4-1.3c7.2,0-9.4-15.4-11.3-16.3
	c-26-11.8-55.3-1.9-79.8,7.9c-16.3,6.5-25.6,16.8-34.2,31c-4.7,7.8,2,13.1-3.9,17.1c-3.6,2.4-4.9,13.8-6.1,17.9
	C34,89.5,34.5,97,35,96.5"/>
<path class="st0" d="M173.1,30c0,0-17.1-3.3-25.8-3.3c-12.1,0-24,0.9-35.8,3.3c-2.6,0.5-7.1,3-9.4,3"/>
<path class="st0" d="M177.4,184.2c0-1.3-0.7-0.8-2-0.7c-8.3,1.2-16.4,4.2-25,5.3c-11,1.4-22.6,3-33.7,1.6c-5-0.6-9.3-1.7-14.1-2.6
	c-1-0.2-3-0.5-3-0.5"/>
<path class="st0" d="M189.2,101.2c0-1.4-7.7-1.3-10-1.3"/>
<path class="st0" d="M97.9,72.4c2,6,9.9,14.6,14.9,19.6c0.6,0.6,9.2,8.1,9.2,7.9c0-7.2-2.2-18.9-4.1-26c-0.1-0.5-1.2-7.9-1.5-7.9
	c-3.6,0-11.9,2-14.8,3.9c-1.7,1.1-7.9,0.7-5.9,0.7C97.1,70.7,97.5,71.3,97.9,72.4z"/>
<path class="st0" d="M121.6,119c0.3,1.7-2.8,11.1-2.5,15.2c0.4,4.1-1.3,9.1-0.3,12.8c0,0.1,0.2,1.3,0.2,1.3c-2.4,0-8.6-5.8-12.2-6.4
	c-0.1,0-12.2-2.5-10.7-3.9c4.6-4.6,10.2-5.9,17.1-11.8C114.7,124.9,121.4,117.5,121.6,119z"/>
<path class="st0" d="M148.2,149.8c-2.3,0.3,15.4-7.2,15.4-11.3c0-3-11.5-3.4-8.4-3.4c1.1,0,4.5-2.9,5.9-3.6
	c13.7-6.9,2.4-15.1,8.2-26.6c6.2-12.3-5.2-12.5-9.3-16.6c-0.8-0.8,7.1-4.7,7.1-5.9c0-0.4-4-4.3-4.8-5.9c-3.3-6.6-9.5-8.9-15.5-11.8
	c-0.3-0.1-5.5-2.2-5.5-1.6c0,6.2,3.7,12.3,4.8,18.7c0.6,3.6,1.8,7.3,1.8,10.9v1.6c2,0,5.1,1.8,7.1,2.7c0.9,0.5,2.9,2.5,1.8,2.5
	c-7.2,0-5.5,1-7.1,5.7c-0.7,2.1,1.1,8.9-0.5,10.5c-1.2,1.2-2.8,3.8-1.6,5c0.7,0.7,4.1,0.9,5.2,1.4c0.9,0.4,3.8,1.4,2.7,1.4
	c-9,0-7.9,10.6-11.6,18c-1.6,3.2-2.8,6.5-4.3,9.6c-0.5,1-2.5,3.2-1.4,3.2C142.3,154,148.6,149.8,148.2,149.8z"/>
</svg>
